<svg xmlns="http://www.w3.org/2000/svg" viewBox="0 0 46.21 56.75"><defs><style>.cls-1{fill:#fff;}</style></defs><title>apple-logo</title><g id="Layer_2" data-name="Layer 2"><g id="Layer_1-2" data-name="Layer 1"><path class="cls-1" d="M38.59,30.15a12.54,12.54,0,0,0,7.62,11.48,31,31,0,0,1-3.93,8.07c-2.37,3.46-4.82,6.9-8.69,7s-5-2.25-9.37-2.25-5.7,2.18-9.3,2.32S8.36,53,6,49.56c-4.87-7-8.6-19.91-3.6-28.59a13.9,13.9,0,0,1,11.74-7.11c3.67-.07,7.13,2.47,9.37,2.47s6.44-3,10.87-2.6a13.26,13.26,0,0,1,10.38,5.63c-.27.17-6.2,3.62-6.13,10.8M31.45,9.06A12.5,12.5,0,0,0,34.4,0,12.72,12.72,0,0,0,26,4.3c-1.84,2.12-3.44,5.52-3,8.78,3.18.25,6.44-1.62,8.42-4"/></g></g></svg>