<svg xmlns="http://www.w3.org/2000/svg" width="13" height="12" fill="#d22856" viewBox="0 0 12.54 11.99"><path d="M6.24 12a.74.74 0 01-.55-.25C1.89 7.42 1 6.44.83 6.17A3.86 3.86 0 010 3.8 3.82 3.82 0 016.28.9 3.85 3.85 0 018.75 0a3.8 3.8 0 013.8 3.8 3.49 3.49 0 01-.9 2.38l-4.86 5.56a.73.73 0 01-.55.25zM2 5.28c.21.25 2.47 2.84 4.24 4.86l4.32-4.94a2 2 0 00.52-1.4 2.33 2.33 0 00-2.33-2.33 2.44 2.44 0 00-1.9.94.76.76 0 01-.58.28.73.73 0 01-.58-.29 2.35 2.35 0 00-4.22 1.4A2.36 2.36 0 002 5.27z"/></svg>