<svg width="73" height="73" fill="#d22856" xmlns="http://www.w3.org/2000/svg"><path d="M32 0h41L0 73V32z"/><path fill="#fff" d="M33.05 10.99l-6.033 6.231 1.16 1.122 2.356-2.433 7.15 6.924 1.326-1.37-7.15-6.923 2.35-2.427zm-7.254 7.492l-1.536 1.586 2.543 10.657-.039.04a9.997 9.997 0 00-.34-.376l-.558-.583c-.205-.22-.42-.442-.643-.666a52.797 52.797 0 00-.62-.612l-4.405-4.266-1.205 1.244 8.309 8.049 1.546-1.597-2.577-10.714.05-.05.342.374a52.464 52.464 0 001.224 1.305c.231.24.448.458.652.657l4.371 4.233 1.195-1.234zm-8.08 8.343l-1.414 1.462 1.287 4.97-5.02-1.116-1.458 1.505 6.495 1.3 1.632 6.935 1.416-1.462-1.368-5.4 5.429 1.206 1.503-1.551-6.966-1.348z"/></svg>