<svg width="147" height="40" xmlns="http://www.w3.org/2000/svg"><path fill="#d22856" d="M60.951 27.761L55.734 6.586c-.364-2.327-2.615-6.592-8.669-6.592a1.5 1.5 0 00-1.513 1.487c0 .821.677 1.486 1.513 1.486 4.895 0 5.62 3.696 5.685 4.107l4.805 19.525h-2.089c-.749-5.874-5.85-10.437-12.025-10.437-6.175 0-11.277 4.563-12.024 10.437h-1.834c-.748-5.874-5.85-10.437-12.025-10.437-6.175 0-11.276 4.563-12.024 10.437h-2.09L8.25 7.074c.063-.411.789-4.107 5.685-4.107.835 0 1.512-.665 1.512-1.486a1.5 1.5 0 00-1.512-1.487c-6.055 0-8.306 4.265-8.669 6.592L.048 27.761c-.268 1.099.536 1.81 1.438 1.81.012 0 .023.004.037.004h4.014c.747 5.873 5.849 10.437 12.024 10.437 6.175 0 11.276-4.564 12.024-10.437h1.829c.748 5.873 5.849 10.437 12.024 10.437 6.175 0 11.277-4.564 12.025-10.437h4.014c.012 0 .023-.004.036-.004.903 0 1.706-.711 1.438-1.81zm-34.426 1.812c-.72 4.234-4.456 7.464-8.968 7.464s-8.246-3.23-8.969-7.464a8.889 8.889 0 01-.135-1.487c0-.507.053-1.002.135-1.487.721-4.232 4.457-7.463 8.969-7.463s8.247 3.231 8.968 7.463c.083.485.137.98.137 1.487 0 .507-.054 1.003-.137 1.487zm25.885 0c-.722 4.234-4.457 7.464-8.969 7.464-4.511 0-8.247-3.23-8.968-7.464a8.785 8.785 0 01-.136-1.487c0-.507.053-1.002.136-1.487.722-4.232 4.457-7.463 8.968-7.463 4.512 0 8.248 3.231 8.969 7.463.082.485.136.98.136 1.487 0 .507-.054 1.003-.136 1.487z"/><path fill="#283645" d="M147 38.704c0 .68-.573 1.296-1.277 1.296-.479 0-.803-.261-1.025-.584l-8.353-10.522-4.836 4.888v4.922c0 .712-.575 1.296-1.279 1.296-.673 0-1.25-.584-1.25-1.296V18.306h-.005c0-.712.576-1.295 1.249-1.295a1.29 1.29 0 011.279 1.295v12.399l12.776-13.24c.288-.259.576-.454.992-.454.672 0 1.218.616 1.218 1.263 0 .356-.161.647-.417.906l-7.94 7.964 8.516 10.619c.224.292.352.55.352.941zm-25.508 1.228h-.128c-.545 0-.931-.323-1.31-.777L106.156 21.19v17.545c0 .681-.544 1.265-1.251 1.265-.672 0-1.216-.584-1.216-1.265V18.338h-.002c0-.68.577-1.263 1.249-1.263h.353c.577 0 .929.292 1.281.744l13.607 17.547V18.274c0-.68.543-1.263 1.248-1.263.672 0 1.219.583 1.219 1.263v20.461c0 .681-.477 1.197-1.152 1.197zm-25.646.064c-.672 0-1.248-.582-1.248-1.294V18.306c0-.712.576-1.295 1.248-1.295.705 0 1.281.583 1.281 1.295v20.396a1.29 1.29 0 01-1.281 1.294zm-14.882-8.16H75.52v6.862c0 .713-.577 1.294-1.282 1.294-.672 0-1.249-.583-1.249-1.294l.002-20.23c0-.712.577-1.295 1.249-1.295h7.14c5.058 0 8.388 2.719 8.388 7.186v.063c0 4.886-4.034 7.414-8.804 7.414zm6.242-7.376c0-3.24-2.4-4.921-6.019-4.921H75.52v9.971h5.539v-.002c3.714 0 6.147-2.007 6.147-4.986z"/></svg>