<svg xmlns="http://www.w3.org/2000/svg" width="75" height="22" fill="#fff" viewBox="0 0 74.43 22.86"><path d="M0 1.45A1.29 1.29 0 011.26.16h7.18c5.09 0 8.44 2.7 8.44 7.15v.06c0 4.86-4.06 7.37-8.85 7.37H2.54v6.83a1.29 1.29 0 01-1.29 1.29A1.28 1.28 0 010 21.57zm8.11 11c3.73 0 6.18-2 6.18-5v-.04c0-3.22-2.41-4.89-6.05-4.89h-5.7v9.92zM21.73 1.29a1.27 1.27 0 112.54 0v20.28a1.27 1.27 0 11-2.54 0V1.29zm9.14.03A1.28 1.28 0 0132.13.06h.35a1.56 1.56 0 011.29.74l13.68 17.45v-17a1.24 1.24 0 112.48 0V21.6a1.14 1.14 0 01-1.16 1.19h-.13a1.74 1.74 0 01-1.32-.79l-14-17.87V21.6a1.24 1.24 0 11-2.48 0zm25.43-.03a1.27 1.27 0 112.54 0v12.33L71.69.45a1.44 1.44 0 011-.45 1.27 1.27 0 011.22 1.26 1.25 1.25 0 01-.42.9l-8 7.92 8.56 10.56a1.41 1.41 0 01.35.93 1.31 1.31 0 01-1.29 1.29 1.22 1.22 0 01-1-.58l-8.4-10.46-4.86 4.86v4.89a1.27 1.27 0 11-2.54 0V1.29z"/></svg>