<svg viewBox="0 0 146.3 40.38" width="147" height="40" xmlns="http://www.w3.org/2000/svg"><path fill="#283645" d="M80.31 17.37h-7.18a1.29 1.29 0 00-1.26 1.29v20.12a1.27 1.27 0 102.55 0V32h5.47c4.8 0 8.85-2.51 8.85-7.37v-.06c.01-4.49-3.34-7.2-8.43-7.2zm5.86 7.31c0 3-2.45 5-6.18 5h-5.57v-9.95h5.7c3.64 0 6.05 1.67 6.05 4.89zM94.86 17.21a1.29 1.29 0 00-1.26 1.29v20.28a1.27 1.27 0 102.54 0V18.5a1.29 1.29 0 00-1.28-1.29zM120.58 17.21a1.26 1.26 0 00-1.26 1.26v17L105.64 18a1.56 1.56 0 00-1.29-.74H104a1.28 1.28 0 00-1.26 1.26v20.3a1.24 1.24 0 102.48 0V21.37l14 17.87a1.73 1.73 0 001.32.77h.13a1.14 1.14 0 001.16-1.19V18.47a1.25 1.25 0 00-1.25-1.26zM145.95 37.85l-8.56-10.56 8-7.92a1.25 1.25 0 00.42-.9 1.27 1.27 0 00-1.22-1.26 1.45 1.45 0 00-1 .45l-12.87 13.17V18.5a1.27 1.27 0 10-2.54 0v20.29a1.27 1.27 0 102.54 0v-4.9l4.87-4.89L144 39.49a1.22 1.22 0 001 .58 1.31 1.31 0 001.28-1.29 1.41 1.41 0 00-.33-.93z"/><path fill="#d22856" d="M55.29 6.65C54.93 4.3 52.69 0 46.69 0a1.5 1.5 0 000 3c4.86 0 5.58 3.73 5.64 4.14l4.77 19.7H55a12 12 0 00-23.85 0h-1.8a12 12 0 00-23.85 0H3.42l4.77-19.7C8.25 6.73 9 3 13.83 3a1.5 1.5 0 000-3c-6 0-8.24 4.3-8.6 6.65L.05 28a1.42 1.42 0 001.43 1.83h4a12 12 0 0023.85 0h1.81a12 12 0 0023.85 0h4A1.42 1.42 0 0060.46 28zm-29 23.19a8.38 8.38 0 11.14-1.5 9 9 0 01-.12 1.5zm25.68 0a8.41 8.41 0 11.13-1.5 9 9 0 01-.1 1.5z"/><path fill="#fff" d="M43.09 19.31A9.09 9.09 0 1052 26.84a9 9 0 00-8.91-7.53zM17.42 19.31a9.1 9.1 0 108.9 7.53 9 9 0 00-8.9-7.53z"/></svg>