<svg xmlns="http://www.w3.org/2000/svg" viewBox="0 0 146.3 40.38"><defs><style>.cls-1{fill:#fff;}</style></defs><title>logotype-white-tablet</title><g id="Layer_2" data-name="Layer 2"><g id="Layer_1-2" data-name="Layer 1"><path class="cls-1" d="M71.87,18.66a1.29,1.29,0,0,1,1.26-1.29h7.18c5.09,0,8.44,2.7,8.44,7.15v.06c0,4.86-4.06,7.37-8.85,7.37H74.42v6.83a1.27,1.27,0,1,1-2.54,0V18.66Zm8.11,11c3.73,0,6.18-2,6.18-5v-.06c0-3.22-2.41-4.89-6.05-4.89h-5.7v9.92H80Z"/><path class="cls-1" d="M93.6,18.5a1.27,1.27,0,1,1,2.54,0V38.78a1.27,1.27,0,1,1-2.54,0Z"/><path class="cls-1" d="M102.74,18.53A1.28,1.28,0,0,1,104,17.28h.35a1.56,1.56,0,0,1,1.29.74l13.68,17.45v-17a1.24,1.24,0,1,1,2.48,0V38.82A1.14,1.14,0,0,1,120.65,40h-.13a1.73,1.73,0,0,1-1.32-.77l-14-17.87V38.82a1.24,1.24,0,1,1-2.48,0V18.53Z"/><path class="cls-1" d="M128.17,18.5a1.27,1.27,0,1,1,2.54,0V30.83l12.85-13.17a1.45,1.45,0,0,1,1-.45,1.27,1.27,0,0,1,1.22,1.26,1.25,1.25,0,0,1-.42.9l-8,7.92,8.56,10.56a1.41,1.41,0,0,1,.35.94A1.31,1.31,0,0,1,145,40.07a1.22,1.22,0,0,1-1-.58L135.58,29l-4.86,4.86v4.89a1.27,1.27,0,1,1-2.54,0V18.5Z"/><path class="cls-1" d="M60.5,28.27"/><path class="cls-1" d="M60.46,28,55.29,6.65C54.93,4.3,52.69,0,46.69,0a1.5,1.5,0,1,0,0,3c4.86,0,5.58,3.73,5.64,4.14l4.77,19.7H55a12,12,0,0,0-23.85,0H29.35a12,12,0,0,0-23.85,0H3.42L8.19,7.14C8.25,6.73,9,3,13.83,3a1.5,1.5,0,1,0,0-3c-6,0-8.24,4.3-8.6,6.65L.05,28a1.42,1.42,0,0,0,1.43,1.83h4a12,12,0,0,0,23.85,0h1.81a12,12,0,0,0,23.85,0h4A1.42,1.42,0,0,0,60.46,28ZM26.31,29.84a8.38,8.38,0,1,1,.14-1.5A9,9,0,0,1,26.31,29.84Zm25.68,0a8.41,8.41,0,1,1,.13-1.5A9,9,0,0,1,52,29.84Z"/></g></g></svg>