<svg xmlns="http://www.w3.org/2000/svg" width="147" height="41" fill="#fff"><path d="M146.995 39.402c0 .669-.579 1.276-1.289 1.276-.484 0-.809-.256-1.034-.575l-8.429-10.371-4.879 4.818v4.852c0 .701-.58 1.276-1.29 1.276a1.282 1.282 0 01-1.261-1.276V19.296h-.004c0-.701.582-1.276 1.261-1.276.71 0 1.29.575 1.29 1.276v12.222l12.89-13.051c.291-.255.581-.447 1.001-.447.678 0 1.229.607 1.229 1.245 0 .35-.163.638-.421.893l-8.011 7.85 8.593 10.466c.225.289.354.542.354.928zm-25.736 1.21h-.129c-.55 0-.939-.318-1.323-.765l-14.021-17.709v17.295c0 .67-.549 1.245-1.261 1.245-.678 0-1.227-.575-1.227-1.245V19.328h-.002c0-.67.582-1.245 1.26-1.245h.356c.582 0 .937.288 1.292.734l13.728 17.295V19.265c0-.67.549-1.245 1.26-1.245.678 0 1.229.575 1.229 1.245v20.168c0 .67-.482 1.179-1.162 1.179zm-25.874.063a1.28 1.28 0 01-1.259-1.275V19.296c0-.701.581-1.276 1.259-1.276.711 0 1.292.575 1.292 1.276V39.4c0 .701-.581 1.275-1.292 1.275zM80.37 32.633h-5.493v6.765c0 .701-.582 1.275-1.293 1.275-.678 0-1.26-.574-1.26-1.275V19.456h.001c0-.702.582-1.277 1.26-1.277h7.204c5.104 0 8.463 2.681 8.463 7.084v.062c0 4.818-4.07 7.308-8.882 7.308zm6.298-7.272c0-3.192-2.422-4.85-6.073-4.85h-5.718v9.829h5.589v-.002c3.746 0 6.202-1.978 6.202-4.915v-.062zm-27.222 5.177c-.014 0-.024.003-.037.003h-3.995c-.743 5.874-5.821 10.437-11.966 10.437s-11.221-4.563-11.966-10.437h-1.82c-.744 5.874-5.821 10.437-11.966 10.437S6.474 36.415 5.73 30.541H1.735c-.013 0-.024-.003-.036-.003-.898 0-1.697-.711-1.431-1.81L5.46 7.552C5.823 5.226 8.062.961 14.088.961c.831 0 1.505.665 1.505 1.486 0 .822-.674 1.487-1.505 1.487-4.872 0-5.595 3.696-5.658 4.106L3.647 27.566h2.08c.745-5.874 5.821-10.437 11.966-10.437s11.223 4.563 11.967 10.437h1.825c.744-5.874 5.821-10.437 11.966-10.437s11.222 4.563 11.966 10.437h2.08L52.715 8.04c-.065-.41-.786-4.106-5.658-4.106a1.495 1.495 0 01-1.505-1.487c0-.821.673-1.486 1.505-1.486 6.025 0 8.265 4.265 8.627 6.591l5.192 21.176c.267 1.099-.532 1.81-1.43 1.81zm-32.829-2.972c-.718-4.233-4.435-7.464-8.925-7.464-4.49 0-8.208 3.231-8.925 7.464-.082.485-.135.98-.135 1.487 0 .507.053 1.003.135 1.486.719 4.235 4.435 7.465 8.925 7.465 4.49 0 8.208-3.23 8.925-7.465.083-.483.136-.979.136-1.486s-.053-1.002-.136-1.487zm25.76 0c-.718-4.233-4.436-7.464-8.926-7.464-4.489 0-8.206 3.231-8.925 7.464-.082.485-.135.98-.135 1.487 0 .507.053 1.003.135 1.486.718 4.235 4.436 7.465 8.925 7.465 4.49 0 8.207-3.23 8.926-7.465.081-.483.135-.979.135-1.486s-.054-1.002-.135-1.487z"/></svg>