<svg xmlns="http://www.w3.org/2000/svg" width="50" height="24" fill="#fff" viewBox="0 0 49.95 24.01"><path d="M1.14 0A1.06 1.06 0 000 1v2a1.07 1.07 0 001.14 1h47.67a1.06 1.06 0 001.14-1V1a1.07 1.07 0 00-1.14-1zm0 10A1.06 1.06 0 000 11v2a1.07 1.07 0 001.14 1h47.67a1.06 1.06 0 001.14-1v-2a1.07 1.07 0 00-1.14-1zm0 10A1.06 1.06 0 000 21v2a1.07 1.07 0 001.14 1h47.67a1.06 1.06 0 001.14-1v-2a1.07 1.07 0 00-1.14-1z"/><path d="M1.14 0A1.06 1.06 0 000 1v2a1.07 1.07 0 001.14 1h47.67a1.06 1.06 0 001.14-1V1a1.07 1.07 0 00-1.14-1zm0 10A1.06 1.06 0 000 11v2a1.07 1.07 0 001.14 1h47.67a1.06 1.06 0 001.14-1v-2a1.07 1.07 0 00-1.14-1zm0 10A1.06 1.06 0 000 21v2a1.07 1.07 0 001.14 1h47.67a1.06 1.06 0 001.14-1v-2a1.07 1.07 0 00-1.14-1z"/></svg>