<svg width="238" height="276" xmlns="http://www.w3.org/2000/svg"><path d="M211.403 81.72l4.28-4.28c6.16-6.17 7.29-15.15 2.5-19.94-4.79-4.79-13.75-3.67-19.91 2.5l-4.3 4.31a118.36 118.36 0 00-59.68-25.58V31.1h6.12a15.71 15.71 0 0015.85-15.48A15.71 15.71 0 00140.393.1h-42.58a15.71 15.71 0 00-15.85 15.48 15.71 15.71 0 0015.85 15.52h6.12v7.66a119.1 119.1 0 10107.47 43zm-92.3 163.32a88.11 88.11 0 1188-88.11 88 88 0 01-88 88.11z" fill="#dedede"/><path fill="#d22856" d="M119 55.53a101 100.984 0 10101 100.984A101 100.984 0 00119 55.53zm0 189.37a88 87.986 0 1188-87.986 88 87.986 0 01-88 87.986z"/><path fill="#d22856" d="M116 190H65.53v-10.07l18.12-17.39q8-7.83 10.52-10.85a23.68 23.68 0 003.55-5.6 13.64 13.64 0 001.09-5.34q0-4.13-2.39-6.14a9.61 9.61 0 00-6.39-2 19.19 19.19 0 00-8.15 1.83 42.35 42.35 0 00-8.24 5.2l-8.29-9.33a54.18 54.18 0 018.84-6.1 33.55 33.55 0 017.65-2.74 41.24 41.24 0 019.28-1 28.73 28.73 0 0111.95 2.34 18.82 18.82 0 018 6.56A16.8 16.8 0 01114 139a22.61 22.61 0 01-1.75 8.89 33.85 33.85 0 01-5.43 8.51 129.46 129.46 0 01-13 12.42l-9.28 8.3v.66H116zM175.34 175.81h-8.69V190h-14.91v-14.19h-30.81v-10.08l31.65-44.26h14.07v43.09h8.69zm-23.6-11.25v-11.63q0-2.91.25-8.44t.39-6.42H152a51.55 51.55 0 01-4.39 7.5l-13.23 19z"/></svg>