<svg xmlns="http://www.w3.org/2000/svg" viewBox="0 0 238 276"><defs><style>.cls-1{fill:#dedede;}.cls-2{fill:#d22856;}</style></defs><title>timer-icon</title><g id="Layer_2" data-name="Layer 2"><g id="Layer_1-2" data-name="Layer 1"><path class="cls-1" d="M211.3,81.62l4.28-4.28c6.16-6.17,7.29-15.15,2.5-19.94s-13.75-3.67-19.91,2.5l-4.3,4.31a118.36,118.36,0,0,0-59.68-25.58V31h6.12a15.71,15.71,0,0,0,15.85-15.48A15.71,15.71,0,0,0,140.29,0H97.71A15.71,15.71,0,0,0,81.86,15.48,15.71,15.71,0,0,0,97.71,31h6.12v7.66a119.1,119.1,0,1,0,107.47,43ZM119,244.94a88.11,88.11,0,1,1,88-88.11A88,88,0,0,1,119,244.94Z"/><path class="cls-2" d="M119,54.53a101,101,0,1,0,101,101A101,101,0,0,0,119,54.53Zm0,189.4a88,88,0,1,1,88-88A88,88,0,0,1,119,243.93Z"/><path class="cls-2" d="M116,190H65.53V179.93l18.12-17.39q8-7.83,10.52-10.85a23.68,23.68,0,0,0,3.55-5.6,13.64,13.64,0,0,0,1.09-5.34q0-4.13-2.39-6.14a9.61,9.61,0,0,0-6.39-2,19.19,19.19,0,0,0-8.15,1.83,42.35,42.35,0,0,0-8.24,5.2l-8.29-9.33a54.18,54.18,0,0,1,8.84-6.1,33.55,33.55,0,0,1,7.65-2.74,41.24,41.24,0,0,1,9.28-1,28.73,28.73,0,0,1,11.95,2.34,18.82,18.82,0,0,1,8,6.56A16.8,16.8,0,0,1,114,139a22.61,22.61,0,0,1-1.75,8.89,33.85,33.85,0,0,1-5.43,8.51,129.46,129.46,0,0,1-13,12.42l-9.28,8.3v.66H116Z"/><path class="cls-2" d="M175.34,175.81h-8.69V190H151.74V175.81H120.93V165.73l31.65-44.26h14.07v43.09h8.69Zm-23.6-11.25V152.93q0-2.91.25-8.44t.39-6.42H152a51.55,51.55,0,0,1-4.39,7.5l-13.23,19Z"/></g></g></svg>